<svg width="373" height="80" viewBox="0 0 373 80" fill="none" xmlns="http://www.w3.org/2000/svg">
<path d="M59.919 24.3952L66.0589 24.2856C67.5939 24.2856 68.3614 24.3952 68.3614 24.6145C68.3614 25.1627 65.2914 25.6561 59.1515 26.0946C55.1496 33.7147 53.1761 38.9227 53.1761 41.7185C53.1761 43.6373 53.7791 44.624 54.9852 44.624C55.4237 44.624 56.0267 44.3499 56.7394 43.7469C57.4521 43.1987 57.8358 42.8698 58.0003 42.8698C58.1648 42.8698 58.2196 42.9794 58.2196 43.1987C58.0003 43.9662 57.3424 44.5692 56.3008 45.1174C55.2593 45.6656 54.3273 45.8849 53.5598 45.8849C52.8471 45.8849 52.2441 45.8301 51.8056 45.7753C50.8188 45.3915 50.2706 44.1855 50.2706 42.1023C50.2706 37.8263 51.9152 32.399 55.1496 25.8205L47.5844 25.985C41.9378 31.5219 36.2365 36.3461 30.5899 40.5125C22.0927 46.7072 15.4046 49.832 10.5804 49.832C10.3063 49.832 9.97737 49.832 9.70326 49.7772C3.23442 49.229 0 45.9397 0 39.7998C0 36.1817 1.15123 32.3442 3.39888 28.2875C6.41402 22.915 10.5804 18.3101 15.8432 14.4727C21.106 10.6352 25.8205 8.77131 29.9869 8.77131C34.1533 8.77131 36.2365 10.3063 36.2365 13.3762C36.2365 15.4594 35.5786 17.7619 34.3178 20.2837C33.0569 22.8054 31.7412 24.3952 30.4803 25.1079C30.3707 25.1627 30.2062 25.1627 30.0417 25.1627C29.8773 25.1627 29.8225 25.1079 29.8225 25.0531L31.9056 21.6542C33.331 19.4065 34.0436 17.433 34.0436 15.7884C34.0436 14.0889 33.6599 12.7184 32.9472 11.7316C32.2346 10.69 31.0285 10.1966 29.4387 10.1966C26.1495 10.1966 22.2024 12.0057 17.6523 15.6787C13.1021 19.3517 9.59362 23.847 7.23633 29.2194C4.93386 34.4822 3.72781 38.6486 3.72781 41.6089C3.72781 46.1042 6.03028 48.3519 10.6352 48.3519C15.0209 48.3519 20.9415 45.5012 28.4519 39.8546C31.796 37.3877 37.2233 32.6731 44.7337 25.7657C43.2535 25.8754 41.883 25.985 40.6221 26.2043C37.9359 26.6977 36.675 26.6429 36.8395 25.9302C37.004 24.3952 37.8263 23.5729 39.2516 23.5729C42.0475 23.9018 44.3499 24.0663 46.2687 24.0663C49.8868 20.7222 55.3141 15.295 62.5504 7.6749C67.3746 2.57657 70.335 0 71.4314 0C71.8699 0 72.144 0.383745 72.144 1.09641C72.144 1.80908 71.9796 2.9055 71.5958 4.44048C71.2121 5.97546 70.7735 6.90741 70.335 7.23633C69.3482 7.89418 68.471 8.82613 67.5939 9.97737C66.7716 11.1286 65.5655 13.3214 63.9757 16.501C62.3311 19.7903 61.0154 22.3668 59.919 24.3952ZM64.9625 8.93577L48.7904 24.1211H52.5182C53.3954 24.1759 54.4918 24.1759 55.8075 24.1759C57.0135 21.7638 60.0835 16.7203 64.9625 8.93577Z" fill="white"/>
<path d="M74.7755 22.4765C75.9267 22.4765 76.4749 22.9151 76.4749 23.7922C76.4749 24.0663 76.4201 24.2856 76.3105 24.5597C72.5278 29.8225 70.2254 33.8244 69.4579 36.5106C79.2708 26.6977 85.2462 21.7638 87.3842 21.7638C87.6035 21.709 87.768 21.709 87.9324 21.709C89.1385 21.709 89.6867 22.2572 89.6867 23.2988C89.6867 23.5181 89.6319 23.7374 89.5771 23.9567C89.4674 24.1759 88.6451 25.3272 87.0553 27.3555C85.1914 29.5484 83.6016 31.6316 82.3407 33.6599C81.0799 35.6883 80.422 37.3877 80.422 38.7034C80.422 40.0739 80.6961 40.7318 81.2992 40.7318C83.1631 40.7318 86.3975 38.1552 91.0024 33.0569C91.1121 32.9473 91.2217 32.7828 91.441 32.5087C92.0988 31.7412 92.4277 31.3575 92.5922 31.3575C92.7018 31.3575 92.7567 31.5767 92.7567 32.0153C92.7567 32.4539 92.4826 33.0021 91.8795 33.6599C86.6716 39.5806 82.9438 42.5957 80.7509 42.5957C78.6678 42.5957 77.6262 41.4445 77.6262 39.1968C77.6262 36.9492 78.4485 34.3178 80.1479 31.3575L84.2046 24.779C81.354 26.8622 78.7774 29.2194 76.5298 31.6864C74.2821 34.2081 72.2537 36.6202 70.4447 38.9775C68.6356 41.3348 67.5392 42.5409 67.265 42.5409C66.6072 42.5409 66.1138 42.2668 65.7849 41.7734C65.4011 41.2252 65.2367 40.5673 65.2367 39.7998C65.2367 39.0324 65.5108 37.9908 66.059 36.6751C66.6072 35.3594 67.3199 33.7696 68.1422 31.9057L64.3596 35.9076C63.4276 36.8395 62.8794 37.2781 62.6053 37.2781C62.386 37.2781 62.2764 37.1685 62.2764 36.8395C62.2764 36.5654 62.4408 36.2365 62.7698 35.9076C64.3047 34.3726 65.6753 32.8376 66.8265 31.4123C67.9229 29.9869 70.1705 27.2459 73.5694 23.1892C73.9532 22.7506 74.3369 22.4765 74.7755 22.4765Z" fill="white"/>
<path d="M100.267 22.4765C101.418 22.4765 101.967 22.9151 101.967 23.7922C101.967 24.0663 101.912 24.2856 101.802 24.5597C98.0194 29.8225 95.7169 33.8244 94.9495 36.5106C104.762 26.6977 110.738 21.7638 112.876 21.7638C113.095 21.709 113.26 21.709 113.424 21.709C114.63 21.709 115.178 22.2572 115.178 23.2988C115.178 23.5181 115.123 23.7374 115.069 23.9567C114.959 24.1759 114.137 25.3272 112.547 27.3555C110.683 29.5484 109.093 31.6316 107.832 33.6599C106.571 35.6883 105.914 37.3877 105.914 38.7034C105.914 40.0739 106.188 40.7318 106.791 40.7318C108.655 40.7318 111.889 38.1552 116.494 33.0569C116.604 32.9473 116.713 32.7828 116.933 32.5087C117.59 31.7412 117.919 31.3575 118.084 31.3575C118.193 31.3575 118.248 31.5767 118.248 32.0153C118.248 32.4539 117.974 33.0021 117.371 33.6599C112.163 39.5806 108.435 42.5957 106.243 42.5957C104.159 42.5957 103.118 41.4445 103.118 39.1968C103.118 36.9492 103.94 34.3178 105.639 31.3575L109.696 24.779C106.846 26.8622 104.269 29.2194 102.021 31.6864C99.7737 34.2081 97.7453 36.6202 95.9362 38.9775C94.1271 41.3348 93.0307 42.5409 92.7566 42.5409C92.0988 42.5409 91.6054 42.2668 91.2765 41.7734C90.8927 41.2252 90.7283 40.5673 90.7283 39.7998C90.7283 39.0324 91.0024 37.9908 91.5506 36.6751C92.0988 35.3594 92.8114 33.7696 93.6338 31.9057L89.8511 35.9076C88.9192 36.8395 88.371 37.2781 88.0969 37.2781C87.8776 37.2781 87.7679 37.1685 87.7679 36.8395C87.7679 36.5654 87.9324 36.2365 88.2613 35.9076C89.7963 34.3726 91.1668 32.8376 92.3181 31.4123C93.4145 29.9869 95.6621 27.2459 99.061 23.1892C99.4447 22.7506 99.8285 22.4765 100.267 22.4765Z" fill="white"/>
<path d="M136.613 23.5729L137.49 23.4085C137.929 23.4085 138.422 23.5729 138.806 23.9567C139.245 24.3404 139.464 24.6145 139.464 24.8338C139.464 25.0531 138.148 27.0814 135.517 30.9189C132.885 34.7563 131.57 37.4426 131.57 38.9775C131.57 39.0872 131.57 39.2516 131.624 39.3613C131.844 40.3481 132.282 40.8414 132.995 40.8414C135.188 40.8414 139.19 37.2233 145.001 29.9869C145.11 29.8225 145.275 29.7128 145.439 29.7128C145.604 29.7128 145.713 29.8773 145.713 30.2062C145.713 30.5351 145.549 30.9189 145.165 31.4123C139.793 38.6486 135.681 42.212 132.831 42.212C132.447 42.212 132.118 42.1571 131.734 42.0475C129.87 41.3348 128.938 39.9643 128.938 37.8811C128.938 37.1685 129.048 36.4558 129.212 35.7431L125.265 39.5257C122.798 41.7186 120.989 42.815 119.838 42.815C118.742 42.815 117.645 42.4312 116.658 41.7186C115.507 40.8963 114.959 39.745 114.959 38.3745C114.959 35.3045 117.097 31.6316 121.428 27.3555C125.704 23.0795 129.651 20.9415 133.269 20.9415C134.64 20.9415 135.572 21.4349 136.065 22.4217C136.175 22.7506 136.284 23.0247 136.394 23.2988C136.504 23.4085 136.558 23.5729 136.613 23.5729ZM117.7 39.0872C117.7 40.6222 118.248 41.3896 119.29 41.3896C121.757 41.3896 125.046 38.7034 129.267 33.331L135.955 24.1211C135.626 23.5181 135.078 23.244 134.311 23.244C131.734 23.244 128.335 25.2175 124.059 29.2195C119.838 33.1665 117.7 36.5106 117.7 39.0872Z" fill="white"/>
<path d="M204.152 15.4046C202.617 16.0625 201.247 16.3366 200.15 16.3366C199.054 16.3366 198.451 16.1173 198.451 15.6239C198.451 15.3498 199.054 15.1853 200.315 15.1305C201.576 15.0757 202.453 14.9661 203.001 14.692C204.591 13.8696 205.413 12.6088 205.413 10.9641C205.413 10.1418 205.194 9.20989 204.701 8.33275C203.33 5.92064 200.096 4.71459 194.888 4.71459C191.872 4.71459 188.912 5.15316 185.897 6.08511C182.882 7.01706 180.415 8.38757 178.387 10.2515C176.358 12.1154 175.371 13.8696 175.371 15.4594C175.371 17.9264 177.784 19.6806 182.663 20.8319L190.118 22.2024C193.133 22.7506 195.326 23.5181 196.806 24.5049C198.725 25.7109 199.712 27.3555 199.712 29.5484C199.712 30.4255 199.547 31.3574 199.273 32.399C197.903 36.9492 194.449 40.4577 188.857 42.815C184.198 44.8982 178.661 45.9397 172.302 45.9397C170.492 45.9397 168.903 45.8301 167.532 45.6656C168.903 46.4331 170.657 47.091 172.85 47.6392C173.014 47.694 173.124 47.7488 173.124 47.9133C173.124 48.297 172.685 48.4615 171.808 48.4615C170.054 48.4615 167.916 47.4199 165.339 45.3367C161.831 44.7885 159.199 43.8017 157.5 42.4312C156.403 41.5541 155.417 40.2384 154.485 38.4841C153.553 36.7299 153.114 35.1949 153.114 33.8244C153.114 32.4539 153.388 31.2478 153.937 30.3707C155.197 28.123 156.787 27.0266 158.761 27.0266C160.241 27.0266 161.118 28.2875 161.337 30.7544C161.94 35.5786 162.324 38.3197 162.543 38.9775C163.201 41.0607 164.243 42.815 165.778 44.2403C167.532 44.6241 169.451 44.7885 171.534 44.7885C176.084 44.7885 180.579 43.8566 184.965 42.0475C189.351 40.2384 192.53 37.6618 194.449 34.3178C195.271 33.0021 195.655 31.8508 195.655 30.8641C195.655 28.8905 193.901 27.3555 190.392 26.2591L179.264 23.7374C176.961 23.1892 175.152 22.2572 173.782 20.9963C172.411 19.7355 171.698 18.2553 171.698 16.6107C171.698 14.0889 173.288 11.5672 176.468 9.04542C178.88 7.1267 181.785 5.59172 185.294 4.55013C188.748 3.45371 192.201 2.96033 195.545 2.96033C198.89 2.96033 201.685 3.45371 203.878 4.44049C206.729 5.75618 208.099 7.67491 208.099 10.1418C208.045 12.6088 206.729 14.363 204.152 15.4046ZM163.421 43.5825C160.954 40.8962 159.419 37.1684 158.761 32.5087C158.377 29.8773 158.048 28.5068 157.664 28.5068C157.335 28.5068 157.007 28.6164 156.732 28.7809C156.458 28.9453 156.129 29.3839 155.855 29.9869C155.581 30.6448 155.417 31.4671 155.417 32.4539C155.417 35.6883 156.568 38.4841 158.816 40.7866C159.967 42.0475 161.502 42.9794 163.421 43.5825Z" fill="white"/>
<path d="M231.672 41.7185C228.822 41.7185 227.396 40.4028 227.396 37.7166C227.396 36.1817 228.054 34.0985 229.425 31.4671C230.795 28.8357 232.166 26.588 233.646 24.7789C231.014 26.0398 227.999 28.3423 224.6 31.6315C221.202 34.9208 218.789 38.4293 217.474 42.0475C217.254 42.3764 216.926 42.5408 216.377 42.5408C215.391 42.5408 214.842 41.9926 214.842 40.8414C215.281 38.5389 216.213 35.8527 217.693 32.8924C218.132 31.9056 219.502 29.1098 221.805 24.3952C218.515 26.5332 215.719 28.8357 213.417 31.3026C211.114 33.7695 208.976 36.2365 207.003 38.7582C205.029 41.2252 203.933 42.486 203.659 42.486C203.111 42.486 202.617 42.2119 202.234 41.7185C201.85 41.2252 201.631 40.7318 201.631 40.1836C201.631 39.4161 202.727 36.6202 204.92 31.8508L201.137 35.8527C200.205 36.7847 199.657 37.2232 199.383 37.2232C199.164 37.2232 199.054 37.1136 199.054 36.7847C199.054 36.5106 199.218 36.1816 199.547 35.8527C201.082 34.3177 202.508 32.7279 203.714 31.193C204.92 29.658 206.948 26.8621 209.799 22.8602C210.237 22.2024 210.895 21.9283 211.772 21.9283C212.595 21.9283 213.033 22.312 213.033 23.1343C213.033 23.4084 211.937 25.4916 209.689 29.2742C207.442 33.1117 206.235 35.469 205.961 36.4558C207.716 34.537 210.292 32.0153 213.746 28.7809C218.954 23.9566 222.353 21.5445 223.997 21.5445C224.491 21.5445 224.984 21.709 225.368 21.9831C225.806 22.2572 226.026 22.5861 226.026 22.9699C226.026 23.3536 225.203 24.9434 223.559 27.7393C221.969 30.6448 221.092 32.399 220.927 32.9472C225.587 29.0001 227.944 27.0266 227.944 27.0266C231.892 23.9566 234.742 22.4217 236.496 22.4217C236.99 22.4217 237.483 22.5861 237.922 22.915C238.36 23.244 238.58 23.6277 238.58 24.0115C238.58 24.1211 237.209 25.8754 234.468 29.3291C231.727 32.7828 230.192 35.6883 229.863 37.8811C229.754 38.6486 229.918 39.1968 230.302 39.5805C230.685 39.9643 231.343 40.1287 232.33 40.1287C233.317 40.1287 234.797 39.4709 236.716 38.1004C238.634 36.7299 240.608 34.866 242.582 32.5635C243.349 31.7412 243.842 31.3026 244.117 31.3026C244.391 31.3026 244.555 31.4123 244.555 31.6315C244.555 31.9056 244.391 32.2894 244.007 32.6183C241.924 35.0852 239.731 37.2232 237.319 38.9775C234.907 40.8414 233.043 41.7185 231.672 41.7185Z" fill="white"/>
<path d="M243.623 43.1439C241.485 43.1439 240.389 41.7734 240.389 38.9775C240.389 36.675 241.65 33.5503 244.117 29.5484C246.584 25.5464 248.612 23.4633 250.147 23.4633C250.585 23.4633 251.024 23.6277 251.572 23.9566C252.12 24.2856 252.34 24.6145 252.34 24.9434C252.12 25.2175 251.901 25.5464 251.572 25.9302C251.298 26.3139 250.969 26.6977 250.64 27.0814C250.311 27.52 249.818 28.123 249.27 28.8905C248.667 29.658 248.119 30.4255 247.57 31.1382C244.391 35.2497 242.801 38.0456 242.801 39.5805C242.801 41.1155 243.349 41.883 244.391 41.883C245.268 41.883 246.474 41.3896 248.009 40.4029C251.572 38.21 254.368 35.7979 256.396 33.1665C257.164 32.1798 257.657 31.6864 257.931 31.6864C258.206 31.6864 258.37 31.8508 258.37 32.1798C258.37 32.5087 257.877 33.1665 256.89 34.2081C255.903 35.1949 255.136 36.0172 254.587 36.6202C254.039 37.2233 253.601 37.607 253.436 37.7715C253.217 37.9359 252.833 38.3197 252.285 38.8679C251.737 39.4161 251.298 39.745 250.969 39.9643C250.695 40.1836 250.257 40.5125 249.708 40.8962C249.16 41.3348 248.667 41.6089 248.228 41.8282C247.79 41.9927 247.296 42.2119 246.748 42.486C245.926 42.9794 244.829 43.1439 243.623 43.1439ZM256.89 17.2685C257.438 17.6523 257.767 18.1457 257.767 18.6939C257.767 19.2421 257.493 19.7355 256.999 20.1192C256.451 20.5029 255.903 20.7222 255.245 20.7222C254.587 20.7222 254.039 20.5029 253.491 20.0096C252.943 19.571 252.723 19.0228 252.723 18.4198C252.723 17.2137 253.546 16.6655 255.136 16.6655C255.684 16.6655 256.287 16.83 256.89 17.2685Z" fill="white"/>
<path d="M268.567 42.7601C265.387 42.7601 263.797 41.0059 263.797 37.4973C263.797 35.7431 264.236 33.7695 265.168 31.6864C266.1 29.6032 267.086 27.7941 268.183 26.3687C267.964 26.4236 267.689 26.4236 267.36 26.4236C266.374 26.4236 265.497 25.7109 264.839 24.2856L260.179 30.3707C257.548 33.6051 256.067 35.2497 255.629 35.2497C255.41 35.2497 255.3 35.1401 255.3 34.9756C255.3 34.537 255.684 33.934 256.396 33.1665C260.069 28.8905 262.646 25.3272 264.181 22.3668C265.168 18.6938 266.374 16.8848 267.854 16.8848C268.841 16.8848 269.334 17.3233 269.334 18.1456C269.334 18.968 268.786 20.0644 267.744 21.3801L266.209 23.4084C266.209 24.2856 266.867 24.7241 268.183 24.7241C268.95 24.7241 269.773 24.45 270.705 23.9018L272.349 22.915C272.459 22.8602 272.623 22.8602 273.007 22.8602C273.336 22.8602 273.72 23.0795 274.103 23.5181C274.487 23.9566 274.597 24.3404 274.487 24.6693L270.102 30.1514C267.415 33.6051 266.045 36.3461 266.045 38.3197C266.045 40.348 266.977 41.3348 268.841 41.3348C270.759 41.3348 273.171 40.2932 275.967 38.21C277.667 37.004 279.202 35.6334 280.572 34.0985C281.888 32.5635 282.601 31.796 282.71 31.796C282.984 31.796 283.149 31.9605 283.149 32.2894C283.149 32.6183 282.984 33.002 282.601 33.3858L280.572 35.6883C279.421 36.8943 278.16 37.9907 276.79 39.0871C273.446 41.5541 270.705 42.7601 268.567 42.7601Z" fill="white"/>
<path d="M290.769 22.4765C291.92 22.4765 292.468 22.9151 292.468 23.7922C292.468 24.0663 292.414 24.2856 292.304 24.5597C288.521 29.8225 286.219 33.8244 285.451 36.5106C295.264 26.6977 301.24 21.7638 303.378 21.7638C303.597 21.709 303.761 21.709 303.926 21.709C305.132 21.709 305.68 22.2572 305.68 23.2988C305.68 23.5181 305.625 23.7374 305.57 23.9567C305.461 24.1759 304.639 25.3272 303.049 27.3555C301.185 29.5484 299.595 31.6316 298.334 33.6599C297.073 35.6883 296.415 37.3877 296.415 38.7034C296.415 40.0739 296.69 40.7318 297.293 40.7318C299.156 40.7318 302.391 38.1552 306.996 33.0569C307.105 32.9473 307.215 32.7828 307.434 32.5087C308.092 31.7412 308.421 31.3575 308.586 31.3575C308.695 31.3575 308.75 31.5767 308.75 32.0153C308.75 32.4539 308.476 33.0021 307.873 33.6599C302.665 39.5806 298.937 42.5957 296.744 42.5957C294.661 42.5957 293.62 41.4445 293.62 39.1968C293.62 36.9492 294.442 34.3178 296.141 31.3575L300.198 24.779C297.347 26.8622 294.771 29.2194 292.523 31.6864C290.275 34.2081 288.247 36.6202 286.438 38.9775C284.629 41.3348 283.533 42.5409 283.258 42.5409C282.601 42.5409 282.107 42.2668 281.778 41.7734C281.395 41.2252 281.23 40.5673 281.23 39.7998C281.23 39.0324 281.504 37.9908 282.052 36.6751C282.601 35.3594 283.313 33.7696 284.136 31.9057L280.353 35.9076C279.421 36.8395 278.873 37.2781 278.599 37.2781C278.379 37.2781 278.27 37.1685 278.27 36.8395C278.27 36.5654 278.434 36.2365 278.763 35.9076C280.298 34.3726 281.669 32.8376 282.82 31.4123C283.916 29.9869 286.164 27.2459 289.563 23.1892C289.947 22.7506 290.33 22.4765 290.769 22.4765Z" fill="white"/>
<path d="M322.565 29.055C322.565 30.5351 321.14 33.0021 318.344 36.4558C315 40.5673 312.149 42.5957 309.792 42.5957H308.805C307.709 42.5957 306.831 42.0475 306.228 40.8962C305.735 40.0739 305.461 39.1968 305.461 38.2648C305.461 35.7431 307.325 32.1797 310.998 27.6296C314.671 23.0795 317.686 20.777 319.934 20.777C322.072 20.777 323.168 21.9283 323.168 24.1759C323.168 24.7789 323.058 25.5464 322.839 26.4784C322.894 26.588 323.278 26.6429 324.045 26.6429C324.813 26.6429 325.964 26.2591 327.499 25.4368C327.444 26.1495 325.799 27.1911 322.51 28.5616C322.565 28.6712 322.565 28.8357 322.565 29.055ZM318.453 25.7657C317.028 25.7657 315 27.4652 312.368 30.8092C309.737 34.2081 308.421 36.675 308.421 38.2648C308.421 39.8546 308.915 40.6769 309.956 40.6769C311.765 40.6769 314.068 39.0323 316.864 35.7431C319.659 32.4538 321.03 30.0966 321.03 28.6712C320.317 28.2875 319.44 27.3007 318.453 25.7657Z" fill="white"/>
<path d="M341.039 17.5974C342.3 17.5974 343.397 18.036 344.274 18.8583C345.151 19.6806 345.59 20.8867 345.59 22.4217C345.59 25.7657 342.848 29.9321 337.312 34.9208C332.652 39.142 328.869 41.7185 325.964 42.6505C325.525 42.6505 324.867 42.3764 324.155 41.883C323.387 41.3896 323.003 40.8962 323.003 40.5125C323.003 39.5805 323.99 36.4558 326.019 31.0833C328.047 25.7109 329.417 22.7506 330.185 22.0927C330.349 21.9283 330.623 21.8186 331.007 21.8186C331.391 21.8186 331.775 22.0379 332.213 22.4217C332.652 22.8054 332.871 23.2988 332.926 23.847C332.926 23.9018 331.884 26.3139 329.801 31.193C327.718 36.0172 326.731 38.9227 326.841 39.8546C328.65 39.3064 331.884 37.1136 336.544 33.2213C341.204 29.3291 343.506 25.8754 343.506 22.8054C343.506 20.9415 342.574 19.6258 340.71 18.7487C340.436 18.639 340.272 18.4198 340.272 18.2005C340.327 17.8167 340.546 17.5974 341.039 17.5974Z" fill="white"/>
<path d="M363.9 23.5729L364.777 23.4085C365.215 23.4085 365.709 23.5729 366.093 23.9567C366.531 24.3404 366.75 24.6145 366.75 24.8338C366.75 25.0531 365.435 27.0814 362.803 30.9189C360.172 34.7563 358.856 37.4426 358.856 38.9775C358.856 39.0872 358.856 39.2516 358.911 39.3613C359.13 40.3481 359.569 40.8414 360.282 40.8414C362.474 40.8414 366.476 37.2233 372.287 29.9869C372.397 29.8225 372.561 29.7128 372.726 29.7128C372.89 29.7128 373 29.8773 373 30.2062C373 30.5351 372.836 30.9189 372.452 31.4123C367.079 38.6486 362.968 42.212 360.117 42.212C359.733 42.212 359.405 42.1571 359.021 42.0475C357.157 41.3348 356.225 39.9643 356.225 37.8811C356.225 37.1685 356.335 36.4558 356.499 35.7431L352.552 39.5257C350.085 41.7186 348.276 42.815 347.125 42.815C346.028 42.815 344.932 42.4312 343.945 41.7186C342.794 40.8963 342.246 39.745 342.246 38.3745C342.246 35.3045 344.384 31.6316 348.714 27.3555C352.99 23.0795 356.938 20.9415 360.556 20.9415C361.926 20.9415 362.858 21.4349 363.352 22.4217C363.461 22.7506 363.571 23.0247 363.681 23.2988C363.845 23.4085 363.9 23.5729 363.9 23.5729ZM345.041 39.0872C345.041 40.6222 345.59 41.3896 346.631 41.3896C349.098 41.3896 352.387 38.7034 356.609 33.331L363.297 24.1211C362.968 23.5181 362.42 23.244 361.652 23.244C359.076 23.244 355.677 25.2175 351.401 29.2195C347.125 33.1665 345.041 36.5106 345.041 39.0872Z" fill="white"/>
<path d="M118.303 68.5258C118.303 70.006 117.81 71.1572 116.768 71.9795C115.781 72.8018 114.301 73.1856 112.437 73.1856H110.025V79.5448H108.929V64.0854H112.711C116.439 64.0854 118.303 65.5655 118.303 68.5258ZM110.08 72.1988H112.218C113.972 72.1988 115.233 71.9247 116.001 71.3217C116.768 70.7187 117.152 69.8415 117.152 68.5258C117.152 67.3198 116.768 66.4426 116.055 65.8944C115.343 65.3462 114.191 65.0173 112.657 65.0173H110.08V72.1988Z" fill="white"/>
<path d="M134.475 79.5448H133.379V71.9247H124.333V79.5448H123.237V64.0854H124.333V70.9379H133.379V64.0854H134.475V79.5448Z" fill="white"/>
<path d="M153.443 71.7602C153.443 74.2272 152.84 76.1459 151.579 77.5712C150.373 78.9966 148.674 79.7092 146.536 79.7092C144.398 79.7092 142.698 78.9966 141.492 77.5712C140.286 76.1459 139.628 74.2272 139.628 71.7602C139.628 69.2933 140.231 67.3746 141.492 65.9493C142.753 64.5239 144.398 63.8112 146.536 63.8112C148.674 63.8112 150.373 64.5239 151.579 65.9493C152.84 67.3746 153.443 69.3481 153.443 71.7602ZM140.78 71.7602C140.78 73.9531 141.273 75.7073 142.26 76.9134C143.247 78.1194 144.672 78.7225 146.481 78.7225C148.345 78.7225 149.77 78.1194 150.757 76.9134C151.744 75.7073 152.237 74.0079 152.237 71.7602C152.237 69.5126 151.744 67.8132 150.757 66.6619C149.77 65.4559 148.345 64.9077 146.536 64.9077C144.672 64.9077 143.301 65.5107 142.26 66.7167C141.273 67.868 140.78 69.5674 140.78 71.7602Z" fill="white"/>
<path d="M162.598 79.5448H161.502V65.1269H156.458V64.0854H167.587V65.0721H162.543V79.5448H162.598Z" fill="white"/>
<path d="M184.526 71.7602C184.526 74.2272 183.923 76.1459 182.663 77.5712C181.457 78.9966 179.757 79.7092 177.619 79.7092C175.481 79.7092 173.782 78.9966 172.576 77.5712C171.37 76.1459 170.712 74.2272 170.712 71.7602C170.712 69.2933 171.315 67.3746 172.576 65.9493C173.836 64.5239 175.481 63.8112 177.619 63.8112C179.757 63.8112 181.457 64.5239 182.663 65.9493C183.923 67.3746 184.526 69.3481 184.526 71.7602ZM171.918 71.7602C171.918 73.9531 172.411 75.7073 173.398 76.9134C174.385 78.1194 175.81 78.7225 177.619 78.7225C179.483 78.7225 180.908 78.1194 181.895 76.9134C182.882 75.7073 183.375 74.0079 183.375 71.7602C183.375 69.5126 182.882 67.8132 181.895 66.6619C180.908 65.4559 179.483 64.9077 177.674 64.9077C175.81 64.9077 174.439 65.5107 173.398 66.7167C172.411 67.868 171.918 69.5674 171.918 71.7602Z" fill="white"/>
<path d="M195.765 71.7602H201.466V78.7773C199.986 79.4351 198.286 79.7092 196.423 79.7092C194.01 79.7092 192.092 78.9966 190.831 77.6261C189.57 76.2555 188.857 74.282 188.857 71.7602C188.857 70.1704 189.186 68.7999 189.844 67.5939C190.502 66.3878 191.434 65.4559 192.585 64.798C193.791 64.1402 195.162 63.8112 196.697 63.8112C198.396 63.8112 199.876 64.1402 201.247 64.7432L200.808 65.73C199.493 65.1269 198.067 64.798 196.642 64.798C194.613 64.798 192.969 65.401 191.818 66.6619C190.612 67.9228 190.009 69.6222 190.009 71.7602C190.009 74.0627 190.557 75.817 191.708 77.023C192.859 78.1743 194.504 78.7773 196.697 78.7773C198.122 78.7773 199.328 78.558 200.315 78.1743V72.747H195.71V71.7602H195.765Z" fill="white"/>
<path d="M208.045 72.8018V79.5448H206.948V64.0854H210.621C212.54 64.0854 213.965 64.4143 214.842 65.1269C215.774 65.8396 216.213 66.8812 216.213 68.3065C216.213 69.3481 215.939 70.2253 215.391 70.9379C214.842 71.6506 214.02 72.144 212.924 72.4729L217.09 79.49H215.774L211.772 72.747H208.045V72.8018ZM208.045 71.8699H211.005C212.321 71.8699 213.307 71.5958 214.02 70.9928C214.733 70.3897 215.117 69.5674 215.117 68.4162C215.117 67.265 214.788 66.3878 214.075 65.8396C213.362 65.2914 212.211 65.0173 210.621 65.0173H208.045V71.8699Z" fill="white"/>
<path d="M228.876 74.0627H222.627L220.489 79.49H219.283L225.478 63.9757H226.19L232.275 79.49H231.069L228.876 74.0627ZM223.011 73.1308H228.548L226.464 67.5391C226.3 67.1005 226.081 66.4975 225.806 65.73C225.642 66.3878 225.423 67.0457 225.203 67.5939L223.011 73.1308Z" fill="white"/>
<path d="M245.323 68.5258C245.323 70.006 244.829 71.1572 243.788 71.9795C242.801 72.8018 241.321 73.1856 239.457 73.1856H237.045V79.5448H235.948V64.0854H239.731C243.513 64.0854 245.323 65.5655 245.323 68.5258ZM237.099 72.1988H239.237C240.992 72.1988 242.253 71.9247 243.02 71.3217C243.788 70.7187 244.171 69.8415 244.171 68.5258C244.171 67.3198 243.788 66.4426 243.075 65.8944C242.362 65.3462 241.211 65.0173 239.676 65.0173H237.099V72.1988Z" fill="white"/>
<path d="M261.495 79.5448H260.398V71.9247H251.353V79.5448H250.257V64.0854H251.353V70.9379H260.398V64.0854H261.495V79.5448Z" fill="white"/>
<path d="M271.034 72.5277L275.529 64.0854H276.68L271.527 73.5693V79.5448H270.431V73.679L265.332 64.0854H266.593L271.034 72.5277Z" fill="white"/>
</svg>
