<svg width="30" height="30" viewBox="0 0 30 30" fill="none" xmlns="http://www.w3.org/2000/svg">
<path d="M14.994 2.70238C19 2.70238 19.4702 2.72024 21.0536 2.79167C22.5179 2.85714 23.3095 3.10119 23.8393 3.30952C24.5417 3.58333 25.0417 3.90476 25.5655 4.42857C26.0893 4.95238 26.4167 5.45238 26.6845 6.15476C26.8869 6.68452 27.1369 7.47619 27.2024 8.94048C27.2738 10.5238 27.2917 10.994 27.2917 15C27.2917 19.006 27.2738 19.4762 27.2024 21.0595C27.1369 22.5238 26.8929 23.3155 26.6845 23.8452C26.4107 24.5476 26.0893 25.0476 25.5655 25.5714C25.0417 26.0952 24.5417 26.4226 23.8393 26.6905C23.3095 26.8929 22.5179 27.1429 21.0536 27.2083C19.4702 27.2798 19 27.2976 14.994 27.2976C10.9881 27.2976 10.5179 27.2798 8.93452 27.2083C7.47024 27.1429 6.67857 26.8988 6.14881 26.6905C5.44643 26.4167 4.94643 26.0952 4.42262 25.5714C3.89881 25.0476 3.57143 24.5476 3.30357 23.8452C3.10119 23.3155 2.85119 22.5238 2.78571 21.0595C2.71429 19.4762 2.69643 19.006 2.69643 15C2.69643 10.994 2.71429 10.5238 2.78571 8.94048C2.85119 7.47619 3.09524 6.68452 3.30357 6.15476C3.57738 5.45238 3.89881 4.95238 4.42262 4.42857C4.94643 3.90476 5.44643 3.57738 6.14881 3.30952C6.67857 3.10714 7.47024 2.85714 8.93452 2.79167C10.5179 2.71429 10.9881 2.70238 14.994 2.70238ZM14.994 0C10.9226 0 10.4107 0.0178571 8.80952 0.0892857C7.21429 0.160714 6.125 0.416667 5.17262 0.785714C4.18452 1.16667 3.35119 1.68452 2.51786 2.51786C1.68452 3.35119 1.17262 4.19048 0.785714 5.17262C0.416667 6.125 0.160714 7.21428 0.0892857 8.81548C0.0178571 10.4107 0 10.9226 0 14.994C0 19.0655 0.0178571 19.5774 0.0892857 21.1786C0.160714 22.7738 0.416667 23.8631 0.785714 24.8214C1.16667 25.8095 1.68452 26.6429 2.51786 27.4762C3.35119 28.3095 4.19048 28.8214 5.17262 29.2083C6.125 29.5774 7.21429 29.8333 8.81548 29.9048C10.4167 29.9762 10.9226 29.994 15 29.994C19.0774 29.994 19.5833 29.9762 21.1845 29.9048C22.7798 29.8333 23.869 29.5774 24.8274 29.2083C25.8155 28.8274 26.6488 28.3095 27.4821 27.4762C28.3155 26.6429 28.8274 25.8036 29.2143 24.8214C29.5833 23.869 29.8393 22.7798 29.9107 21.1786C29.9821 19.5774 30 19.0714 30 14.994C30 10.9167 29.9821 10.4107 29.9107 8.80952C29.8393 7.21429 29.5833 6.125 29.2143 5.16667C28.8333 4.17857 28.3155 3.34524 27.4821 2.5119C26.6488 1.67857 25.8095 1.16667 24.8274 0.779762C23.875 0.410714 22.7857 0.154762 21.1845 0.0833333C19.5774 0.0178571 19.0655 0 14.994 0Z" fill="white"/>
<path d="M14.9941 7.29166C10.7441 7.29166 7.29169 10.7381 7.29169 14.994C7.29169 19.25 10.7441 22.6964 14.9941 22.6964C19.2441 22.6964 22.6964 19.244 22.6964 14.994C22.6964 10.744 19.2441 7.29166 14.9941 7.29166ZM14.9941 19.994C12.2322 19.994 9.99407 17.7559 9.99407 14.994C9.99407 12.2321 12.2322 9.99404 14.9941 9.99404C17.756 9.99404 19.9941 12.2321 19.9941 14.994C19.9941 17.7559 17.756 19.994 14.9941 19.994Z" fill="white"/>
<path d="M23 8.78573C23.9928 8.78573 24.7976 7.98091 24.7976 6.98811C24.7976 5.99531 23.9928 5.19049 23 5.19049C22.0072 5.19049 21.2024 5.99531 21.2024 6.98811C21.2024 7.98091 22.0072 8.78573 23 8.78573Z" fill="white"/>
</svg>
