<svg width="30" height="30" viewBox="0 0 30 30" fill="none" xmlns="http://www.w3.org/2000/svg">
<g clip-path="url(#clip0)">
<path fill-rule="evenodd" clip-rule="evenodd" d="M25.6242 4.36208C22.8097 1.54669 19.057 0 15.0609 0C6.83218 0 0.128909 6.67142 0.121747 14.861C0.121747 17.484 0.809262 20.0356 2.11267 22.2951L0 30L7.92074 27.933C10.105 29.1162 12.5615 29.7434 15.0609 29.7434H15.068C23.2967 29.7434 30 23.072 30.0071 14.8753C30 10.9052 28.4459 7.17035 25.6242 4.36208ZM15.0609 27.2274C12.8264 27.2274 10.6422 26.6287 8.73716 25.5025L8.28598 25.2316L3.58797 26.4576L4.84125 21.8959L4.54762 21.4255C3.3015 19.4583 2.6498 17.1846 2.6498 14.8539C2.6498 8.05417 8.22153 2.50891 15.068 2.50891C18.3839 2.50891 21.4992 3.799 23.8482 6.12972C26.19 8.46757 27.4791 11.5681 27.4791 14.8681C27.4719 21.6892 21.9002 27.2274 15.0609 27.2274ZM21.8716 17.9758C21.4991 17.7904 19.6658 16.8924 19.322 16.7641C18.9783 16.6429 18.7276 16.5788 18.4841 16.9494C18.2335 17.32 17.5173 18.1611 17.3024 18.4034C17.0876 18.6529 16.8656 18.6814 16.4932 18.4961C16.1208 18.3108 14.9176 17.9187 13.4925 16.65C12.3824 15.6664 11.6376 14.4476 11.4156 14.077C11.2008 13.7063 11.3941 13.5068 11.5803 13.3215C11.745 13.1575 11.9527 12.8867 12.1389 12.6728C12.3251 12.459 12.3896 12.3022 12.5113 12.0527C12.6331 11.8033 12.5758 11.5895 12.4827 11.4041C12.3896 11.2188 11.6448 9.38703 11.3297 8.64576C11.0289 7.91875 10.7209 8.01853 10.4918 8.0114C10.2769 7.99715 10.0263 7.99715 9.7756 7.99715C9.52494 7.99715 9.12389 8.08981 8.78013 8.46044C8.43638 8.83108 7.47672 9.72915 7.47672 11.5609C7.47672 13.3927 8.81594 15.1532 9.00214 15.4027C9.18834 15.6522 11.6305 19.4013 15.376 21.0121C16.264 21.397 16.9587 21.6251 17.503 21.7962C18.3982 22.0813 19.2074 22.0385 19.852 21.9458C20.5681 21.8389 22.0578 21.0478 22.3729 20.1782C22.6808 19.3086 22.6808 18.5674 22.5877 18.4105C22.4946 18.2537 22.244 18.1611 21.8716 17.9758Z" fill="white"/>
</g>
<defs>
<clipPath id="clip0">
<rect width="30" height="30" fill="white"/>
</clipPath>
</defs>
</svg>
